<?xml version="1.0" encoding="utf-8"?>
<!-- Generator: Adobe Illustrator 26.0.3, SVG Export Plug-In . SVG Version: 6.00 Build 0)  -->
<svg version="1.1" id="Layer_1" xmlns="http://www.w3.org/2000/svg" xmlns:xlink="http://www.w3.org/1999/xlink" x="0px" y="0px"
	 viewBox="0 0 98 79" style="enable-background:new 0 0 98 79;" xml:space="preserve">
<style type="text/css">
	.st0{fill:url(#SVGID_1_);}
	.st1{fill:#000040;}
	.st2{fill:#F56D90;}
	.st3{fill:#E6DAFE;}
	.st4{fill:#DCBBFA;}
	.st5{fill:#FED0DA;}
	.st6{fill:#E7E9F1;}
	.st7{fill:#FFF2F9;}
	.st8{fill:#FE394B;}
	.st9{fill:#FEAED8;}
	.st10{fill:#B38DFC;}
	.st11{fill:url(#SVGID_00000083785102593258354550000000356438404325131446_);}
	.st12{fill:none;stroke:#000040;stroke-miterlimit:10;}
	.st13{fill:#FFFFFF;}
	.st14{fill:none;stroke:#000000;stroke-miterlimit:10;}
	.st15{fill:none;stroke:#000000;stroke-miterlimit:10;stroke-dasharray:11.8222,11.8222;}
	.st16{fill:none;stroke:#FE394B;stroke-width:10;stroke-miterlimit:10;}
	.st17{fill:url(#SVGID_00000157988613357053788510000014253125427763492526_);}
	.st18{fill:url(#SVGID_00000104681394460394806630000004594593949231557540_);}
	.st19{fill:none;stroke:#000040;stroke-width:2;stroke-miterlimit:10;}
	.st20{fill:none;stroke:#FE394B;stroke-width:8;stroke-miterlimit:10;}
	.st21{fill:none;stroke:#000040;stroke-width:8;stroke-miterlimit:10;}
	.st22{clip-path:url(#SVGID_00000160172575364432512750000004830963034056314247_);}
	.st23{fill:#575770;}
	.st24{fill:#363651;}
	.st25{fill:#EF5264;}
	.st26{fill:#F7798B;}
	.st27{fill:#F49AAB;}
	.st28{fill:#1B1B4C;}
	.st29{fill:url(#SVGID_00000047046113930862344480000015389059092583658377_);}
	.st30{fill:#FFF2F9;stroke:#FFFFFF;stroke-width:3;stroke-miterlimit:10;}
	.st31{fill:#E6DAFE;stroke:#FFFFFF;stroke-width:3;stroke-miterlimit:10;}
</style>
<g>
	<g>
		<path class="st13" d="M11.64,22.77c-1.11-1.19-1.67-3.17-1.67-5.94c0-2.2,0.37-4.56,1.12-7.1c0.74-2.53,1.94-4.7,3.58-6.52
			c1.64-1.81,3.73-2.72,6.26-2.72c1.57,0,2.84,0.35,3.8,1.04c0.96,0.69,1.45,1.75,1.45,3.17c0,0.9-0.18,1.61-0.53,2.12
			c-0.36,0.51-0.91,0.77-1.66,0.77c-0.75,0-1.35-0.27-1.79-0.82c0.38-0.19,0.71-0.57,1-1.13c0.29-0.57,0.44-1.15,0.44-1.76
			c0-0.57-0.15-1.02-0.45-1.38c-0.3-0.36-0.79-0.53-1.46-0.53c-1.11,0-2.17,0.76-3.17,2.28c-1,1.52-1.82,3.43-2.43,5.73
			c-0.62,2.3-0.93,4.52-0.93,6.66c0,1.59,0.27,2.81,0.82,3.64c0.55,0.84,1.53,1.26,2.95,1.26c1.24,0,2.38-0.27,3.42-0.82
			c1.05-0.54,1.95-1.32,2.7-2.32l0.72,0.31c-0.52,1.32-1.3,2.42-2.32,3.3c-1.03,0.88-2.12,1.52-3.3,1.93
			c-1.17,0.41-2.28,0.61-3.33,0.61C14.49,24.56,12.75,23.96,11.64,22.77z"/>
		<path class="st13" d="M25.9,22.99c-0.9-0.8-1.35-2.05-1.35-3.77c0-1.42,0.29-3,0.88-4.74c0.59-1.74,1.53-3.24,2.83-4.51
			c1.3-1.27,2.93-1.9,4.9-1.9c2.68,0,4.02,1.68,4.02,5.03v0.03c0.06,0.02,0.18,0.03,0.34,0.03c0.69,0,1.49-0.18,2.39-0.55
			c0.9-0.37,1.72-0.81,2.45-1.33l0.28,0.85c-0.61,0.65-1.4,1.2-2.37,1.65c-0.97,0.45-2.04,0.77-3.19,0.96
			c-0.17,1.91-0.6,3.57-1.29,4.99c-0.69,1.42-1.58,2.52-2.67,3.3c-1.09,0.77-2.27,1.16-3.55,1.16C28.03,24.18,26.8,23.78,25.9,22.99
			z M32.34,20.49c0.5-0.58,0.94-1.36,1.32-2.36c0.38-0.99,0.65-2.1,0.82-3.31c-0.57-0.13-0.85-0.57-0.85-1.32
			c0-0.86,0.32-1.42,0.97-1.7c-0.04-0.69-0.15-1.17-0.31-1.43c-0.17-0.26-0.46-0.39-0.88-0.39c-0.69,0-1.36,0.5-2.01,1.51
			c-0.65,1.01-1.17,2.21-1.57,3.61c-0.4,1.4-0.6,2.64-0.6,3.71c0,1,0.12,1.68,0.34,2.02c0.23,0.35,0.65,0.52,1.26,0.52
			C31.33,21.35,31.84,21.07,32.34,20.49z"/>
		<path class="st13" d="M55.06,23.22c-0.6-0.68-0.9-1.52-0.9-2.53c0-0.44,0.05-0.94,0.16-1.49c0.11-0.55,0.21-1.09,0.33-1.62
			c0.12-0.52,0.19-0.86,0.24-1c0.17-0.73,0.32-1.46,0.47-2.17c0.15-0.71,0.22-1.29,0.22-1.73c0-1.07-0.38-1.6-1.13-1.6
			c-0.55,0-1.02,0.27-1.44,0.8c-0.42,0.53-0.75,1.23-1,2.09l-2.13,10.08h-4.52l2.29-10.84c0.06-0.25,0.09-0.51,0.09-0.79
			c0-0.92-0.31-1.38-0.94-1.38c-0.59,0-1.1,0.27-1.52,0.8c-0.43,0.53-0.77,1.24-1.02,2.12l-2.13,10.08h-4.52l3.33-15.7h4.52
			l-0.35,1.63c1.07-1.19,2.35-1.79,3.83-1.79c1.84,0,2.92,0.9,3.23,2.7c1.15-1.78,2.61-2.67,4.37-2.67c1.07,0,1.92,0.29,2.54,0.88
			s0.94,1.48,0.94,2.67c0,0.61-0.07,1.28-0.22,2.02c-0.15,0.74-0.36,1.65-0.63,2.72c-0.17,0.65-0.32,1.28-0.45,1.9
			c-0.14,0.62-0.2,1.1-0.2,1.46c0,0.42,0.09,0.74,0.28,0.97c0.19,0.23,0.51,0.34,0.97,0.34c0.63,0,1.13-0.22,1.51-0.68
			c0.38-0.45,0.75-1.15,1.13-2.09h1.32c-0.77,2.3-1.67,3.85-2.68,4.63c-1.02,0.79-2.07,1.18-3.16,1.18
			C56.59,24.24,55.66,23.9,55.06,23.22z"/>
		<path class="st13" d="M78.68,23.22c-0.6-0.68-0.9-1.52-0.9-2.53c0-0.44,0.05-0.94,0.16-1.49c0.11-0.55,0.21-1.09,0.33-1.62
			c0.12-0.52,0.19-0.86,0.24-1c0.17-0.73,0.32-1.46,0.47-2.17c0.15-0.71,0.22-1.29,0.22-1.73c0-1.07-0.38-1.6-1.13-1.6
			c-0.55,0-1.02,0.27-1.44,0.8c-0.42,0.53-0.75,1.23-1,2.09l-2.13,10.08h-4.52l2.29-10.84c0.06-0.25,0.09-0.51,0.09-0.79
			c0-0.92-0.31-1.38-0.94-1.38c-0.59,0-1.1,0.27-1.52,0.8c-0.43,0.53-0.77,1.24-1.02,2.12l-2.13,10.08H61.2l3.33-15.7h4.52
			l-0.35,1.63c1.07-1.19,2.35-1.79,3.83-1.79c1.84,0,2.92,0.9,3.23,2.7c1.15-1.78,2.61-2.67,4.37-2.67c1.07,0,1.92,0.29,2.54,0.88
			s0.94,1.48,0.94,2.67c0,0.61-0.07,1.28-0.22,2.02c-0.15,0.74-0.36,1.65-0.63,2.72c-0.17,0.65-0.32,1.28-0.45,1.9
			c-0.14,0.62-0.2,1.1-0.2,1.46c0,0.42,0.09,0.74,0.28,0.97c0.19,0.23,0.51,0.34,0.97,0.34c0.63,0,1.13-0.22,1.51-0.68
			c0.38-0.45,0.75-1.15,1.13-2.09h1.32c-0.77,2.3-1.67,3.85-2.68,4.63c-1.02,0.79-2.07,1.18-3.16,1.18
			C80.21,24.24,79.27,23.9,78.68,23.22z"/>
		<path class="st13" d="M86.86,23.03c-0.86-0.81-1.29-2.07-1.29-3.78c0-1.45,0.28-3.04,0.85-4.77c0.57-1.74,1.49-3.24,2.77-4.51
			c1.28-1.27,2.9-1.9,4.87-1.9c2.3,0,3.46,1,3.46,3.01c0,1.17-0.34,2.25-1,3.23c-0.67,0.98-1.56,1.78-2.67,2.37
			c-1.11,0.6-2.29,0.94-3.55,1.02c-0.04,0.46-0.06,0.78-0.06,0.94c0,1.74,0.65,2.61,1.95,2.61c0.59,0,1.21-0.16,1.88-0.47
			s1.28-0.71,1.82-1.19c-0.57,3.1-2.38,4.65-5.43,4.65C88.91,24.24,87.72,23.84,86.86,23.03z M92.75,15.42
			c0.7-0.5,1.27-1.15,1.7-1.93c0.43-0.78,0.64-1.61,0.64-2.46c0-0.86-0.26-1.29-0.78-1.29c-0.73,0-1.46,0.67-2.18,1.99
			c-0.72,1.33-1.26,2.82-1.62,4.48C91.3,16.18,92.05,15.92,92.75,15.42z"/>
	</g>
	<g>
		<path class="st13" d="M40.42,39.55c-0.4-0.4-0.6-1.01-0.6-1.82c0-0.34,0.05-0.78,0.16-1.31l1.37-6.49h2.91l-1.46,6.88
			c-0.04,0.2-0.06,0.39-0.06,0.57c0,0.55,0.2,0.83,0.61,0.83c0.38,0,0.7-0.16,0.97-0.47c0.27-0.32,0.48-0.75,0.65-1.3l1.38-6.49
			h2.91l-1.46,6.88c-0.06,0.2-0.08,0.42-0.08,0.65c0,0.27,0.06,0.46,0.19,0.58c0.13,0.11,0.34,0.17,0.64,0.17
			c0.38,0,0.71-0.16,0.98-0.48c0.28-0.32,0.49-0.76,0.66-1.29h0.85c-0.5,1.46-1.12,2.44-1.85,2.96c-0.73,0.52-1.47,0.78-2.21,0.78
			c-0.58,0-1.04-0.16-1.39-0.49c-0.34-0.32-0.55-0.8-0.62-1.43c-0.46,0.74-0.94,1.25-1.45,1.52c-0.51,0.27-1.02,0.4-1.55,0.4
			C41.34,40.15,40.82,39.95,40.42,39.55z"/>
		<path class="st13" d="M55.69,39.5c-0.38-0.44-0.58-0.98-0.58-1.63c0-0.28,0.03-0.6,0.1-0.96c0.07-0.36,0.14-0.7,0.21-1.04
			c0.07-0.34,0.12-0.55,0.15-0.65c0.11-0.47,0.21-0.94,0.3-1.4c0.09-0.46,0.14-0.83,0.14-1.11c0-0.69-0.24-1.03-0.73-1.03
			c-0.35,0-0.66,0.17-0.93,0.51c-0.27,0.34-0.48,0.79-0.65,1.35l-1.37,6.49h-2.91l2.14-10.11h2.91l-0.22,1.05
			c0.67-0.75,1.46-1.13,2.37-1.13c0.69,0,1.23,0.19,1.64,0.57c0.4,0.38,0.61,0.95,0.61,1.72c0,0.39-0.05,0.83-0.14,1.3
			c-0.1,0.48-0.23,1.06-0.4,1.75c-0.11,0.42-0.21,0.83-0.29,1.22c-0.09,0.4-0.13,0.71-0.13,0.94c0,0.27,0.06,0.48,0.18,0.63
			c0.12,0.15,0.33,0.22,0.63,0.22c0.4,0,0.73-0.14,0.97-0.43c0.24-0.29,0.48-0.74,0.73-1.34h0.85c-0.5,1.48-1.07,2.48-1.73,2.98
			c-0.65,0.51-1.33,0.76-2.03,0.76C56.68,40.15,56.08,39.93,55.69,39.5z"/>
		<path class="st13" d="M60.96,39.37c-0.55-0.52-0.83-1.33-0.83-2.44c0-0.93,0.18-1.95,0.55-3.07c0.36-1.12,0.96-2.09,1.78-2.9
			c0.82-0.82,1.87-1.22,3.13-1.22c1.48,0,2.23,0.65,2.23,1.94c0,0.76-0.22,1.45-0.65,2.08c-0.43,0.63-1,1.14-1.72,1.53
			c-0.72,0.38-1.48,0.6-2.29,0.66c-0.03,0.3-0.04,0.5-0.04,0.61c0,1.12,0.42,1.68,1.25,1.68c0.38,0,0.78-0.1,1.21-0.3
			s0.82-0.46,1.17-0.77c-0.36,2-1.53,2.99-3.5,2.99C62.28,40.15,61.51,39.89,60.96,39.37z M64.75,34.47
			c0.45-0.32,0.82-0.74,1.09-1.24c0.28-0.5,0.41-1.03,0.41-1.59c0-0.55-0.17-0.83-0.51-0.83c-0.47,0-0.94,0.43-1.41,1.28
			c-0.46,0.86-0.81,1.82-1.04,2.88C63.82,34.96,64.3,34.79,64.75,34.47z"/>
	</g>
	<g>
		<path class="st13" d="M2.1,77.12c-1.07-0.92-1.61-2.09-1.61-3.51c0-1.3,0.33-2.37,1-3.22c0.67-0.85,1.53-1.52,2.58-2.02
			c1.06-0.5,2.46-1.02,4.21-1.56l5.48-25.88c0.6-2.9,1.67-4.91,3.19-6.03c1.53-1.12,3.21-1.68,5.05-1.68c1.42,0,2.67,0.46,3.74,1.38
			c1.07,0.92,1.61,2.09,1.61,3.51c0,0.7-0.05,1.31-0.14,1.86H25.1c0.06-0.67,0.09-1.07,0.09-1.22c0-0.48-0.17-0.86-0.5-1.13
			c-0.33-0.27-0.74-0.41-1.22-0.41c-0.64,0-1.25,0.28-1.86,0.84c-0.61,0.56-1.04,1.52-1.31,2.88l-0.77,3.58h12.1l-3.26,15.41
			c-0.09,0.45-0.14,0.88-0.14,1.27c0,1.24,0.45,1.86,1.36,1.86c0.84,0,1.57-0.36,2.18-1.06c0.6-0.71,1.09-1.69,1.45-2.92l3.08-14.55
			h6.53l-3.26,15.41c-0.12,0.45-0.18,0.94-0.18,1.45c0,0.6,0.14,1.03,0.43,1.29c0.29,0.26,0.76,0.39,1.43,0.39
			c0.85,0,1.58-0.36,2.2-1.09c0.62-0.73,1.11-1.69,1.47-2.9h1.9c-1.12,3.26-2.5,5.48-4.15,6.64c-1.65,1.16-3.3,1.74-4.96,1.74
			c-1.3,0-2.33-0.36-3.1-1.09c-0.77-0.73-1.23-1.8-1.38-3.22c-1.03,1.66-2.11,2.8-3.24,3.4c-1.13,0.61-2.29,0.91-3.47,0.91
			c-1.45,0-2.62-0.45-3.51-1.36c-0.89-0.91-1.34-2.27-1.34-4.08c0-0.75,0.12-1.74,0.36-2.95l2.67-12.74h-5.53L13.96,70.8
			c-0.61,2.93-1.65,4.95-3.13,6.05c-1.48,1.1-3.14,1.65-4.99,1.65C4.42,78.5,3.18,78.04,2.1,77.12z M7.38,70.93l0.59-2.63
			c-1.6,0.54-2.83,1.17-3.69,1.88c-0.86,0.71-1.29,1.64-1.29,2.79c0,0.36,0.18,0.7,0.54,1.02s0.79,0.48,1.27,0.48
			C6.01,74.47,6.87,73.29,7.38,70.93z"/>
		<path class="st13" d="M46.41,66.6c-1-0.56-1.74-1.28-2.22-2.18s-0.73-1.82-0.73-2.79c0-1,0.23-1.86,0.7-2.61
			c0.47-0.74,1.03-1.28,1.7-1.61c1.18-2.11,2.21-4.25,3.08-6.41c0.88-2.16,1.71-4.49,2.49-7l6.71-0.91
			c0.15,3.87,0.41,8.05,0.77,12.56c0.15,1.81,0.23,3.13,0.23,3.94c0,0.7-0.06,1.27-0.18,1.72c1.42-0.82,2.51-1.57,3.26-2.27h1.9
			c-1.93,2.24-4.25,4.12-6.93,5.67c-0.88,0.94-1.96,1.62-3.24,2.06c-1.28,0.44-2.58,0.66-3.88,0.66
			C48.63,67.44,47.4,67.16,46.41,66.6z M51.44,62.86c0.75-0.66,1.13-1.74,1.13-3.22c0-0.91-0.09-2.18-0.27-3.81
			c-0.3-3.44-0.5-5.76-0.59-6.93c-0.72,2.39-1.95,5.24-3.67,8.57c0.7,0.36,1.04,0.89,1.04,1.59c0,0.58-0.19,1.09-0.57,1.54
			c-0.38,0.45-0.85,0.68-1.43,0.68c-0.64,0-1.04-0.2-1.22-0.59c0,1.09,0.22,1.89,0.66,2.4c0.44,0.51,1.14,0.77,2.11,0.77
			C49.74,63.86,50.68,63.53,51.44,62.86z"/>
		<path class="st13" d="M63.49,65.7c-1.24-1.16-1.86-2.98-1.86-5.46c0-2.08,0.41-4.38,1.22-6.89c0.82-2.51,2.14-4.67,3.99-6.5
			c1.84-1.83,4.19-2.74,7.03-2.74c3.32,0,4.99,1.45,4.99,4.35c0,1.69-0.48,3.25-1.45,4.67c-0.97,1.42-2.25,2.56-3.85,3.42
			c-1.6,0.86-3.31,1.35-5.12,1.47c-0.06,0.91-0.09,1.51-0.09,1.81c0,1.48,0.26,2.49,0.77,3.01c0.51,0.53,1.34,0.79,2.49,0.79
			c1.63,0,3.03-0.38,4.19-1.13c1.16-0.75,2.44-1.9,3.83-3.44h1.54c-3.35,5.59-7.51,8.38-12.46,8.38
			C66.47,67.44,64.73,66.86,63.49,65.7z M71.99,54.66c1.01-0.72,1.83-1.65,2.45-2.76c0.62-1.12,0.93-2.3,0.93-3.54
			s-0.38-1.86-1.13-1.86c-1.09,0-2.15,0.95-3.19,2.86c-1.04,1.9-1.79,4.06-2.24,6.48C69.91,55.78,70.98,55.39,71.99,54.66z
			 M76.45,33.18h4.76l-5.48,8.57h-3.4L76.45,33.18z"/>
		<path class="st13" d="M80.85,65.7c-1.24-1.16-1.86-2.98-1.86-5.46c0-2.08,0.41-4.38,1.22-6.89s2.14-4.67,3.99-6.5
			c1.84-1.83,4.18-2.74,7.02-2.74c3.32,0,4.99,1.45,4.99,4.35c0,1.69-0.48,3.25-1.45,4.67c-0.97,1.42-2.25,2.56-3.85,3.42
			c-1.6,0.86-3.31,1.35-5.12,1.47c-0.06,0.67-0.09,1.12-0.09,1.36c0,2.51,0.94,3.76,2.81,3.76c0.85,0,1.75-0.23,2.72-0.68
			c0.97-0.45,1.84-1.03,2.63-1.72c-0.82,4.47-3.43,6.71-7.84,6.71C83.81,67.44,82.09,66.86,80.85,65.7z M89.35,54.71
			c1.01-0.72,1.83-1.65,2.45-2.79c0.62-1.13,0.93-2.32,0.93-3.56s-0.38-1.86-1.13-1.86c-1.06,0-2.11,0.96-3.15,2.88
			c-1.04,1.92-1.82,4.07-2.33,6.46C87.26,55.81,88.34,55.43,89.35,54.71z"/>
	</g>
</g>
</svg>
